<svg width="20" height="20" viewBox="0 0 20 20" fill="none" xmlns="http://www.w3.org/2000/svg">
<path d="M10.0147 13.3333C9.70527 13.3332 9.40857 13.2164 9.18983 13.0084L4.52316 8.57304C4.41173 8.47075 4.32285 8.3484 4.26171 8.21312C4.20057 8.07783 4.16838 7.93233 4.16704 7.7851C4.16569 7.63787 4.19521 7.49186 4.25387 7.35559C4.31253 7.21931 4.39916 7.09551 4.5087 6.9914C4.61824 6.88729 4.7485 6.80495 4.89188 6.7492C5.03526 6.69344 5.18889 6.66539 5.3438 6.66667C5.49871 6.66795 5.6518 6.69854 5.79413 6.75665C5.93647 6.81476 6.06521 6.89924 6.17283 7.00514L10.0147 10.6566L13.8565 7.00514C14.0765 6.80316 14.3712 6.69139 14.6771 6.69392C14.983 6.69645 15.2756 6.81306 15.4919 7.01865C15.7083 7.22424 15.831 7.50235 15.8336 7.79308C15.8363 8.08382 15.7187 8.36391 15.5062 8.57304L10.8395 13.0084C10.6208 13.2164 10.3241 13.3332 10.0147 13.3333Z" fill="#111928"/>
</svg>
